<?xml version="1.0" standalone="no"?>
<!DOCTYPE svg PUBLIC "-//W3C//DTD SVG 20010904//EN" "http://www.w3.org/TR/2001/REC-SVG-20010904/DTD/svg10.dtd">
<!-- Created using Krita: https://krita.org -->
<svg xmlns="http://www.w3.org/2000/svg" 
    xmlns:xlink="http://www.w3.org/1999/xlink"
    xmlns:krita="http://krita.org/namespaces/svg/krita"
    xmlns:sodipodi="http://sodipodi.sourceforge.net/DTD/sodipodi-0.dtd"
    width="737.28pt"
    height="737.28pt"
    viewBox="0 0 737.28 737.28">
<defs/>
<g id="group0" transform="translate(368.64, 13.860031500585)" fill="none">
  <path id="shape0" fill="#a33380" fill-rule="evenodd" stroke="#000000" stroke-opacity="0" stroke-width="0" stroke-linecap="square" stroke-linejoin="bevel" d="M92.16 0L192.96 536.76L18 709.56L54.72 554.76L0 535.68L0 432.332L32.04 424.44L67.68 406.08Z"/>
  <path id="shape1" transform="translate(0, 220.499960416226)" fill="#008fa8" fill-rule="evenodd" stroke="#000000" stroke-opacity="0" stroke-width="0" stroke-linecap="square" stroke-linejoin="bevel" d="M50.3632 165.297L53.64 0L129.24 244.08L68.4 318.6L50.8723 403.818L0 453.96L0 238.68"/>
  <path id="shape2" transform="translate(0, 305.277066143329)" fill="#274880" fill-rule="evenodd" stroke="#000000" stroke-opacity="0" stroke-width="0" stroke-linecap="square" stroke-linejoin="bevel" d="M0 0L25.4165 7.34281L57.4908 79.3829L70.2188 201.062L30.5076 238.736L0 245.355L0 0"/>
  <path id="shape3" transform="translate(73.2734709792604, 482.019831095958)" fill="#5c2283" fill-rule="evenodd" stroke="#000000" stroke-opacity="0" stroke-width="0" stroke-linecap="square" stroke-linejoin="bevel" d="M1.01823 149.24L28.0014 75.8584L94.1866 0L117.097 85.5316L55.4937 188.373L0 206.192Z"/>
 </g><g id="group0" transform="matrix(-1.00000002362368 0 0 1.00000002362368 368.64 13.85999161879)" fill="none">
  <path id="shape0" fill="#a33380" fill-rule="evenodd" stroke="#000000" stroke-opacity="0" stroke-width="0" stroke-linecap="square" stroke-linejoin="bevel" d="M92.16 0L192.96 536.76L18 709.56L54.72 554.76L0 535.68L0 432.332L32.04 424.44L67.68 406.08Z"/>
  <path id="shape1" transform="translate(0, 220.499960416226)" fill="#008fa8" fill-rule="evenodd" stroke="#000000" stroke-opacity="0" stroke-width="0" stroke-linecap="square" stroke-linejoin="bevel" d="M50.3632 165.297L53.64 0L129.24 244.08L68.4 318.6L50.8723 403.818L0 453.96L0 238.68"/>
  <path id="shape2" transform="translate(0, 305.277066143329)" fill="#274880" fill-rule="evenodd" stroke="#000000" stroke-opacity="0" stroke-width="0" stroke-linecap="square" stroke-linejoin="bevel" d="M0 0L25.4165 7.34281L57.4908 79.3829L70.2188 201.062L30.5076 238.736L0 245.355L0 0"/>
  <path id="shape3" transform="translate(73.2734709792604, 482.019831095958)" fill="#5c2283" fill-rule="evenodd" stroke="#000000" stroke-opacity="0" stroke-width="0" stroke-linecap="square" stroke-linejoin="bevel" d="M1.01823 149.24L28.0014 75.8584L94.1866 0L117.097 85.5316L55.4937 188.373L0 206.192Z"/>
 </g>
</svg>
